<svg width="54" height="70" viewBox="0 0 54 70" fill="none" xmlns="http://www.w3.org/2000/svg">
<path fill-rule="evenodd" clip-rule="evenodd" d="M18.2755 53.774C17.2152 52.4554 16.1162 51.1989 14.9393 49.8503C8.38358 42.3626 -0.457754 32.2488 0.0184521 20.2298C0.387784 10.8152 6.95315 4.63588 15.4549 1.81413C22.982 -0.60471 31.0182 -0.60471 38.5458 1.81413C47.0474 4.63623 53.6128 10.8158 53.9823 20.2402C54.4489 32.2598 45.6076 42.3634 39.0615 49.8607C37.8748 51.2101 36.7855 52.4562 35.7156 53.7845L34.8113 54.9072V55H19.2486L18.276 53.8049L18.2755 53.774ZM29.1401 7.01506V46.6681C35.9486 31.5075 43.0592 15.2252 34.5093 7.82926V7.82858C32.7439 7.39861 30.9481 7.12697 29.1401 7.01504V7.01506ZM25.1909 46.9354V6.99409C23.3745 7.08964 21.5692 7.3449 19.7927 7.75577C11.039 15.1507 18.2851 31.6402 25.1909 46.8933V46.9354ZM41.9687 11.0721C44.955 19.9911 40.3444 32.257 35.0236 44.2971C40.6848 37.8085 47.7947 29.2807 47.4545 20.5053C47.2991 16.4684 45.1688 13.2959 41.9687 11.071V11.0721ZM19.4124 44.802C13.9557 32.5149 9.15053 19.9497 12.312 10.8764C8.96622 13.132 6.7096 16.3454 6.54393 20.5065C6.19394 29.5183 13.6837 38.2512 19.4124 44.8015V44.802Z" fill="white"/>
<path fill-rule="evenodd" clip-rule="evenodd" d="M36.0914 54.8824L35.3147 61.1317V66.3407C35.3147 68.3403 33.3683 70 30.9873 70H25.0865C22.7063 70 20.7592 68.3502 20.7592 66.3407V61.3417L19.9624 54.9129H23.2711L23.8159 59.2719H32.2381L32.7829 54.9129L36.0914 54.8824Z" fill="white"/>
</svg>
